<svg width="192" height="192" viewBox="0 0 192 192" fill="none" xmlns="http://www.w3.org/2000/svg">
  <rect width="192" height="192" rx="24" fill="#3ecf8e"/>
  <path d="M96 48C87.1634 48 80 55.1634 80 64V80H64C55.1634 80 48 87.1634 48 96V128C48 136.837 55.1634 144 64 144H128C136.837 144 144 136.837 144 128V96C144 87.1634 136.837 80 128 80H112V64C112 55.1634 104.837 48 96 48ZM96 64C96 64 96 64 96 64V80H96V64ZM64 96H128V128H64V96Z" fill="white"/>
  <circle cx="96" cy="112" r="8" fill="#3ecf8e"/>
</svg>